<svg xmlns="http://www.w3.org/2000/svg" version="1.1" xmlns:xlink="http://www.w3.org/1999/xlink" xmlns:svgjs="http://svgjs.dev/svgjs" width="1000" height="128" viewBox="0 0 1000 128"><g transform="matrix(1,0,0,1,-0.6060589142784352,0.6250676082974422)"><svg viewBox="0 0 396 51" data-background-color="#f9f9f9" preserveAspectRatio="xMidYMid meet" height="128" width="1000" xmlns="http://www.w3.org/2000/svg" xmlns:xlink="http://www.w3.org/1999/xlink"><g id="tight-bounds" transform="matrix(1,0,0,1,0.23999954115618038,-0.2490503751810138)"><svg viewBox="0 0 395.52 51.49810075036203" height="51.49810075036203" width="395.52"><g><svg viewBox="0 0 482.62387614305544 62.83933302524604" height="51.49810075036203" width="395.52"><g><rect width="4.100518019108805" height="45.69719948652117" x="72.26901775978745" y="8.571066769362435" fill="#030303" opacity="1" stroke-width="0" stroke="transparent" fill-opacity="1" class="rect-o-0" data-fill-palette-color="primary" rx="1%" id="o-0" data-palette-color="#030303"></rect></g><g transform="matrix(1,0,0,1,87.10387614305543,8.684741394950795)"><svg viewBox="0 0 395.52 45.46985023534445" height="45.46985023534445" width="395.52"><g id="textblocktransform"><svg viewBox="0 0 395.52 45.46985023534445" height="45.46985023534445" width="395.52" id="textblock"><g><svg viewBox="0 0 395.52 45.46985023534445" height="45.46985023534445" width="395.52"><g transform="matrix(1,0,0,1,0,0)"><svg width="395.52" viewBox="1 -39.599998474121094 350.5299987792969 40.29999923706055" height="45.46985023534445" data-palette-color="#030303"><g class="wordmark-text-0" data-fill-palette-color="primary" id="text-0"><path d="M1 0L1-8.2 3.5-8.2 3.5-30.65 1-30.65 1-38.9 21.3-38.9Q29.65-38.9 34.58-34.33 39.5-29.75 39.5-19.45L39.5-19.45Q39.5-9.15 34.58-4.58 29.65 0 21.3 0L21.3 0 1 0ZM17.5-8.2L20.4-8.2Q22.1-8.2 22.95-9.1 23.8-10 23.8-11.9L23.8-11.9 23.8-27Q23.8-30.7 20.4-30.7L20.4-30.7 17.5-30.7 17.5-8.2ZM60 0.7Q50.85 0.7 45.87-4.1 40.9-8.9 40.9-19.45L40.9-19.45Q40.9-30 45.87-34.8 50.85-39.6 60-39.6L60-39.6Q69.15-39.6 74.12-34.8 79.1-30 79.1-19.45L79.1-19.45Q79.1-8.9 74.12-4.1 69.15 0.7 60 0.7L60 0.7ZM60-8.2Q61.7-8.2 62.55-9.1 63.4-10 63.4-11.9L63.4-11.9 63.4-27Q63.4-28.9 62.55-29.8 61.7-30.7 60-30.7L60-30.7Q58.3-30.7 57.45-29.8 56.6-28.9 56.6-27L56.6-27 56.6-11.9Q56.6-9.95 57.45-9.08 58.3-8.2 60-8.2L60-8.2ZM118.5-19.95L118.5-12.5 116-12.5 116-2.5Q113.8-1.25 109.57-0.28 105.35 0.7 100.45 0.7L100.45 0.7Q91.1 0.7 85.8-4.23 80.5-9.15 80.5-19.45L80.5-19.45Q80.5-30 85.77-34.8 91.05-39.6 100.85-39.6L100.85-39.6Q105.6-39.6 109.75-38.6 113.9-37.6 116-36.35L116-36.35 116-24.4 103.5-24.4 103.5-26.75Q103.5-28.85 102.62-29.78 101.75-30.7 99.85-30.7L99.85-30.7Q97.95-30.7 97.07-29.78 96.2-28.85 96.2-26.75L96.2-26.75 96.2-12.15Q96.2-10.05 97.07-9.13 97.95-8.2 99.85-8.2L99.85-8.2Q101.75-8.2 102.62-9.13 103.5-10.05 103.5-12.15L103.5-12.15 103.5-12.5 100.8-12.5 100.8-19.95 118.5-19.95ZM119.89 0L119.89-8.2 122.39-8.2 122.39-30.7 119.89-30.7 119.89-38.9 142.84-38.9Q149.09-38.9 152.59-36.35 156.09-33.8 156.09-29.05L156.09-29.05Q156.09-26.1 154.69-24.08 153.29-22.05 151.42-21.03 149.54-20 147.79-19.65L147.79-19.65 147.79-19.15Q151.34-18.8 154.19-16.9 157.04-15 157.04-10.1L157.04-10.1Q157.04-4.85 153.09-2.43 149.14 0 142.84 0L142.84 0 119.89 0ZM136.39-22.5L139.09-22.5Q140.54-22.5 141.27-23.28 141.99-24.05 141.99-25.7L141.99-25.7 141.99-27.5Q141.99-29.15 141.27-29.93 140.54-30.7 139.09-30.7L139.09-30.7 136.39-30.7 136.39-22.5ZM136.39-8.2L139.44-8.2Q140.89-8.2 141.62-8.97 142.34-9.75 142.34-11.4L142.34-11.4 142.34-13.6Q142.34-15.25 141.62-16.03 140.89-16.8 139.44-16.8L139.44-16.8 136.39-16.8 136.39-8.2ZM186.89-38.9L195.34-8.2 197.34-8.2 197.34 0 177.74 0 177.74-8.2 180.74-8.2 179.94-12.2 173.14-12.2 172.34-8.2 175.34-8.2 175.34 0 158.24 0 158.24-8.2 160.24-8.2 168.69-38.9 186.89-38.9ZM176.29-27.45L174.24-17.5 178.84-17.5 176.79-27.45 176.29-27.45ZM198.94 0L198.94-8.2 201.44-8.2 201.44-30.7 198.94-30.7 198.94-38.9 221.89-38.9Q228.34-38.9 231.74-36.25 235.14-33.6 235.14-27.65L235.14-27.65Q235.14-24.3 233.79-21.85 232.44-19.4 229.94-18.45L229.94-18.45 229.99-17.95Q234.79-17.2 234.79-12.05L234.79-12.05 234.79-8.2 237.14-8.2 237.14 0 221.29 0 221.29-11.75Q221.29-13.7 220.71-14.7 220.14-15.7 218.91-16.05 217.69-16.4 215.44-16.4L215.44-16.4 215.44-8.2 218.74-8.2 218.74 0 198.94 0ZM215.44-22.5L218.14-22.5Q219.59-22.5 220.31-23.28 221.04-24.05 221.04-25.7L221.04-25.7 221.04-27.5Q221.04-29.15 220.31-29.93 219.59-30.7 218.14-30.7L218.14-30.7 215.44-30.7 215.44-22.5ZM238.94 0L238.94-8.2 241.44-8.2 241.44-30.7 238.94-30.7 238.94-38.9 261.89-38.9Q268.14-38.9 271.64-36.35 275.14-33.8 275.14-29.05L275.14-29.05Q275.14-26.1 273.74-24.08 272.34-22.05 270.46-21.03 268.59-20 266.84-19.65L266.84-19.65 266.84-19.15Q270.39-18.8 273.24-16.9 276.09-15 276.09-10.1L276.09-10.1Q276.09-4.85 272.14-2.43 268.19 0 261.89 0L261.89 0 238.94 0ZM255.44-22.5L258.14-22.5Q259.59-22.5 260.31-23.28 261.04-24.05 261.04-25.7L261.04-25.7 261.04-27.5Q261.04-29.15 260.31-29.93 259.59-30.7 258.14-30.7L258.14-30.7 255.44-30.7 255.44-22.5ZM255.44-8.2L258.49-8.2Q259.94-8.2 260.66-8.97 261.39-9.75 261.39-11.4L261.39-11.4 261.39-13.6Q261.39-15.25 260.66-16.03 259.94-16.8 258.49-16.8L258.49-16.8 255.44-16.8 255.44-8.2ZM311.43 0L277.68 0 277.68-8.2 280.18-8.2 280.18-30.7 277.68-30.7 277.68-38.9 311.43-38.9 311.43-23.8 300.23-23.8 300.23-30.7 294.18-30.7 294.18-22.8 298.58-22.8 298.58-17.1 294.18-17.1 294.18-8.2 300.23-8.2 300.23-16.1 311.43-16.1 311.43 0ZM313.33 0L313.33-8.2 315.83-8.2 315.83-30.7 313.33-30.7 313.33-38.9 336.28-38.9Q342.73-38.9 346.13-36.25 349.53-33.6 349.53-27.65L349.53-27.65Q349.53-24.3 348.18-21.85 346.83-19.4 344.33-18.45L344.33-18.45 344.38-17.95Q349.18-17.2 349.18-12.05L349.18-12.05 349.18-8.2 351.53-8.2 351.53 0 335.68 0 335.68-11.75Q335.68-13.7 335.11-14.7 334.53-15.7 333.31-16.05 332.08-16.4 329.83-16.4L329.83-16.4 329.83-8.2 333.13-8.2 333.13 0 313.33 0ZM329.83-22.5L332.53-22.5Q333.98-22.5 334.71-23.28 335.43-24.05 335.43-25.7L335.43-25.7 335.43-27.5Q335.43-29.15 334.71-29.93 333.98-30.7 332.53-30.7L332.53-30.7 329.83-30.7 329.83-22.5Z" fill="#030303" data-fill-palette-color="primary"></path></g></svg></g></svg></g></svg></g></svg></g><g><svg viewBox="0 0 61.534677395628265 62.83933302524604" height="62.83933302524604" width="61.534677395628265"><g><svg xmlns="http://www.w3.org/2000/svg" xmlns:xlink="http://www.w3.org/1999/xlink" version="1.1" x="0" y="0" viewBox="3.0040981769561768 1 94.99590301513672 97.01000213623047" enable-background="new 0 0 100 100" xml:space="preserve" height="62.83933302524604" width="61.534677395628265" class="icon-icon-0" data-fill-palette-color="accent" id="icon-0"><g fill="#030303" data-fill-palette-color="accent"><path d="M71.011 43.139c-0.474 0-0.937-0.239-1.201-0.673-0.403-0.662-0.195-1.528 0.467-1.934 0.418-0.254 0.639-0.552 0.716-0.961 0.251-1.335-1.014-3.367-1.477-3.973l-0.39-0.511 0.128-0.633c1.593-7.608-2.896-18.518-2.942-18.627-1.698-3.607-2.206-6.889-2.308-9.185-1.096 9.186-4.483 12.854-4.631 13.011l-0.11 0.104c-6.789 5.771-4.68 13.581-4.658 13.66 0.213 0.748-0.223 1.524-0.97 1.735-0.746 0.209-1.525-0.223-1.736-0.971-0.109-0.389-2.59-9.581 5.467-16.501 0.335-0.401 3.109-3.931 3.933-12.169l0.025-0.23 0.096-0.211c0.489-1.078 1.908-2.902 4.114-2.902h1.68l-0.296 1.654c-0.008 0.044-0.811 4.967 1.964 10.866 0.22 0.524 4.674 11.354 3.243 19.731 0.704 1.059 2.047 3.438 1.634 5.662-0.222 1.196-0.919 2.183-2.015 2.853C71.516 43.073 71.261 43.139 71.011 43.139z" fill="#030303" data-fill-palette-color="accent"></path><path d="M56.97 98.01l-0.363-1.549C53.74 84.279 43.017 76.68 42.908 76.605c-0.638-0.445-0.794-1.32-0.35-1.957 0.445-0.635 1.323-0.795 1.958-0.35 0.459 0.32 10.852 7.688 14.424 19.984L94.627 81.1c-1.654-5.789-9.393-30.659-23.276-41.96-0.603-0.49-0.693-1.376-0.203-1.978s1.375-0.694 1.979-0.203c16.417 13.363 24.235 43.393 24.56 44.665L98 82.852 56.97 98.01z" fill="#030303" data-fill-palette-color="accent"></path><path d="M26.436 86.398c-1.374 0-2.726-0.256-4.045-0.764-11.446-4.406-16.116-26.816-16.31-27.77-0.153-0.76 0.338-1.502 1.099-1.656 0.763-0.16 1.503 0.336 1.659 1.098C8.882 57.523 13.39 79.16 23.403 83.01c3.229 1.242 6.665 0.471 10.5-2.361 0.182-0.121 12.319-8.172 18.95-14.436 0.564-0.533 1.455-0.508 1.988 0.059 0.534 0.564 0.507 1.453-0.057 1.986-6.81 6.432-18.766 14.361-19.271 14.695C32.417 85.24 29.37 86.398 26.436 86.398z" fill="#030303" data-fill-palette-color="accent"></path><path d="M11.212 78.775c-1.253 0-2.187-0.428-2.84-0.91-5.205-3.838-2.849-19.129-2.563-20.859 0.127-0.768 0.852-1.283 1.615-1.158 0.767 0.127 1.285 0.85 1.159 1.615-0.97 5.883-1.43 16.01 1.458 18.139 0.284 0.207 1.146 0.846 3.384-0.273 0.696-0.348 1.541-0.064 1.888 0.629 0.348 0.695 0.064 1.539-0.63 1.887C13.326 78.523 12.176 78.775 11.212 78.775z" fill="#030303" data-fill-palette-color="accent"></path><path d="M16.047 82.111c-1.369 0-3.866-0.508-5.682-3.809-0.375-0.68-0.126-1.535 0.555-1.908 0.682-0.375 1.535-0.127 1.909 0.555 1.475 2.676 3.344 2.375 3.555 2.33 0.75-0.158 1.501 0.312 1.672 1.059 0.17 0.748-0.273 1.488-1.017 1.674C16.99 82.023 16.616 82.111 16.047 82.111z" fill="#030303" data-fill-palette-color="accent"></path><path d="M12.205 59.344c-0.549 0-1.278-0.197-1.931-0.607-1.16 0.617-2.737 0.182-4.982-1.58-2.087-1.639-2.383-3.303-2.266-4.412 0.34-3.185 4.381-5.245 4.841-5.469l0.46-0.225 0.498 0.124c3.183 0.795 4.716 3.655 5.011 4.267 1.533 2.461 1.559 3.799 1.527 4.152l-0.021 0.283-0.131 0.25C13.531 59.344 12.733 59.344 12.205 59.344zM11.627 56.244c0.048 0.043 0.108 0.084 0.172 0.123 0.208-0.301 0.47-0.725 0.722-1.176-0.084-0.324-0.338-1.098-1.111-2.326l-0.099-0.186c-0.006-0.014-0.878-1.905-2.682-2.621-1.088 0.638-2.688 1.869-2.807 2.984-0.06 0.586 0.345 1.225 1.206 1.902 0.751 0.588 1.269 0.9 1.605 1.064-0.051-0.457 0.003-0.895 0.307-1.283l0.422-0.545 1.319-0.02 0.666 0.652 0.16 0.369C11.582 55.348 11.759 55.742 11.627 56.244z" fill="#030303" data-fill-palette-color="accent"></path><path d="M9.04 49.676c-0.63 0-1.203-0.426-1.364-1.065-0.187-0.754 0.271-1.517 1.024-1.705 9.454-2.363 13.937-4.422 15.346-5.147 0.489-2.247 1.555-5.75 1.604-5.914l0.099-0.321 0.231-0.242c8.789-9.182 26.42-10.036 27.168-10.067 0.752-0.011 1.43 0.568 1.463 1.344s-0.568 1.432-1.343 1.465c-0.17 0.007-16.93 0.826-25.025 8.966-0.309 1.036-1.264 4.286-1.565 5.939l-0.111 0.615-0.533 0.329c-0.177 0.11-4.486 2.721-16.649 5.762C9.269 49.664 9.154 49.676 9.04 49.676z" fill="#030303" data-fill-palette-color="accent"></path><path d="M43.334 29.349c-0.212 0-0.426-0.047-0.629-0.148-0.695-0.348-0.976-1.192-0.63-1.887 3.041-6.079 1.926-9.647 1.914-9.682-1.402-4.601-0.669-13.07-0.639-13.427L43.636 1l2.158 2.385c3.908 4.32 3.953 8.512 3.953 8.688 0 3.049 1.075 4.268 1.123 4.318 3.492 3.904 4.13 8.529 4.155 8.724 0.102 0.77-0.442 1.476-1.211 1.577-0.767 0.09-1.475-0.44-1.576-1.208l0 0c-0.006-0.04-0.57-3.982-3.434-7.184-0.144-0.139-1.87-1.988-1.87-6.227 0-0.083-0.039-1.523-0.982-3.499-0.048 2.666 0.055 6.028 0.712 8.19 0.045 0.123 1.555 4.553-2.073 11.806C44.346 29.064 43.85 29.349 43.334 29.349z" fill="#030303" data-fill-palette-color="accent"></path><path d="M64.399 36.149c-0.48 0-0.95-0.248-1.213-0.693-0.39-0.663-0.175-1.514 0.479-1.912 0.126-0.084 2.208-1.535 0.9-5.751-0.081-0.301-1.614-6.134-0.578-9.86l0.048-0.146c0.02-0.052 0.407-1.164-0.074-2.834-0.74 1.512-1.369 3.097-1.369 3.922v0.651l-0.498 0.424c-0.063 0.053-6.35 5.461-4.147 10.654 0.304 0.715-0.03 1.54-0.744 1.844-0.715 0.305-1.54-0.03-1.845-0.745-2.628-6.193 2.814-11.941 4.474-13.5 0.358-2.56 2.52-6.268 2.983-7.042l1.128-1.879 1.238 1.81c2.608 3.815 1.715 7.019 1.505 7.636-0.668 2.486 0.192 6.817 0.583 8.286 1.99 6.414-1.989 8.841-2.16 8.941C64.888 36.086 64.642 36.149 64.399 36.149z" fill="#030303" data-fill-palette-color="accent"></path><path d="M37.51 47.491c-0.125 0-0.25-0.002-0.378-0.008l-0.458-0.021-0.357-0.286c-0.146-0.118-3.578-2.942-1.776-8.344L34.817 38l0.881-0.118c0 0 0.29-0.039 0.776-0.039 1.517 0 5.308 0.396 7.746 4.055l0.442 0.662-0.341 0.72C44.24 43.451 42.271 47.491 37.51 47.491zM36.954 40.673c-0.418 2.133 0.367 3.444 0.825 3.999 1.849-0.097 2.992-1.181 3.561-1.917C39.909 41.143 38.055 40.751 36.954 40.673z" fill="#030303" data-fill-palette-color="accent"></path><path d="M37.466 46.082c-1.518 0-2.718-1.323-2.857-3.144-0.141-1.831 0.915-3.286 2.562-3.539l0.531-0.082 0.447 0.291c0.398 0.258 2.385 1.636 2.396 3.5 0.004 0.672-0.24 1.643-1.437 2.44C38.576 45.902 38.025 46.082 37.466 46.082zM37.408 42.626c0.002 0.222 0.062 0.44 0.132 0.575 0.184-0.122 0.216-0.17 0.216-0.17C37.728 42.969 37.594 42.812 37.408 42.626z" fill="#030303" data-fill-palette-color="accent"></path><path d="M47.962 28.215c-0.295 0-0.59-0.091-0.843-0.282-0.621-0.465-0.748-1.347-0.28-1.969 2.723-3.63 0.652-5.488 0.631-5.506-0.342-0.285-1.572-1.596-2.263-5.845-0.572-3.51-1.634-4.902-1.643-4.916-0.473-0.605-0.381-1.486 0.217-1.968 0.599-0.482 1.466-0.405 1.956 0.184 0.155 0.187 1.545 1.95 2.245 6.248 0.534 3.281 1.365 4.203 1.373 4.212 1.374 1.183 3.157 4.712-0.268 9.278C48.812 28.021 48.39 28.215 47.962 28.215z" fill="#030303" data-fill-palette-color="accent"></path></g></svg></g></svg></g></svg></g><defs></defs></svg><rect width="395.52" height="51.49810075036203" fill="none" stroke="none" visibility="hidden"></rect></g></svg></g></svg>