<?xml version="1.0" encoding="UTF-8"?>
<svg xmlns="http://www.w3.org/2000/svg" viewBox="0 0 448 512">
    
    <symbol id="arrowUp" viewBox="0 0 384 512">
        <path d="M214.6 41.4c-12.5-12.5-32.8-12.5-45.3 0l-160 160c-12.5 12.5-12.5 32.8 0 45.3s32.8 12.5 45.3 0L160 141.2V448c0 17.7 14.3 32 32 32s32-14.3 32-32V141.2L329.4 246.6c12.5 12.5 32.8 12.5 45.3 0s12.5-32.8 0-45.3l-160-160z"/>
    </symbol>
    <symbol id="arrowUpCircled" viewBox="0 0 512 512">
        <path d="M256 512A256 256 0 1 0 256 0a256 256 0 1 0 0 512zM135.1 217.4l107.1-99.9c3.8-3.5 8.7-5.5 13.8-5.5s10.1 2 13.8 5.5l107.1 99.9c4.5 4.2 7.1 10.1 7.1 16.3c0 12.3-10 22.3-22.3 22.3H304v96c0 17.7-14.3 32-32 32H240c-17.7 0-32-14.3-32-32V256H150.3C138 256 128 246 128 233.7c0-6.2 2.6-12.1 7.1-16.3z"/>
    </symbol>
    <symbol id="chevronDown" viewBox="0 0 24 24" fill="none">
        <path d="M7 10L12 15L17 10" stroke-width="1.5" stroke-linecap="round" stroke-linejoin="round"/>
    </symbol>
    <symbol id="download" viewBox="0 0 512 512">
        <path d="M288 32c0-17.7-14.3-32-32-32s-32 14.3-32 32V274.7l-73.4-73.4c-12.5-12.5-32.8-12.5-45.3 0s-12.5 32.8 0 45.3l128 128c12.5 12.5 32.8 12.5 45.3 0l128-128c12.5-12.5 12.5-32.8 0-45.3s-32.8-12.5-45.3 0L288 274.7V32zM64 352c-35.3 0-64 28.7-64 64v32c0 35.3 28.7 64 64 64H448c35.3 0 64-28.7 64-64V416c0-35.3-28.7-64-64-64H346.5l-45.3 45.3c-25 25-65.5 25-90.5 0L165.5 352H64zm368 56a24 24 0 1 1 0 48 24 24 0 1 1 0-48z"/>
    </symbol>
    <symbol id="download-two" viewBox="0 0 24 24" fill="none">
        <path d="M12 16L12 8" stroke="#323232" stroke-width="2" stroke-linecap="round" stroke-linejoin="round"/>
        <path d="M9 13L11.913 15.913V15.913C11.961 15.961 12.039 15.961 12.087 15.913V15.913L15 13" stroke="#323232" stroke-width="2" stroke-linecap="round" stroke-linejoin="round"/>
        <path d="M3 15L3 16L3 19C3 20.1046 3.89543 21 5 21L19 21C20.1046 21 21 20.1046 21 19L21 16L21 15" stroke="#323232" stroke-width="2" stroke-linecap="round" stroke-linejoin="round"/>
    </symbol>
    <symbol id="mexico" viewBox="0 0 36 36" aria-hidden="true" role="img" class="iconify iconify--twemoji" preserveAspectRatio="xMidYMid meet">
        <path fill="#006847" d="M4 5a4 4 0 0 0-4 4v18a4 4 0 0 0 4 4h7V5H4z"></path><path fill="#CE1126" d="M32 5h-7v26h7a4 4 0 0 0 4-4V9a4 4 0 0 0-4-4z"></path><path fill="#EEE" d="M11 5h14v26H11z"></path><path fill="#A6D388" d="M23 18a5 5 0 1 1-10 0h-1a6 6 0 0 0 12 0h-1z"></path><path d="M13.543 20.269a.498.498 0 0 0-.673-.218a.5.5 0 0 0-.219.673c.09.177.189.35.296.516v.001l.004.006v.001l.008.011v.001l.003.006l.001.002l.004.005v.001l.003.005v.002l.003.005l.001.002l.003.005l.001.002l.003.004l.002.003l.002.003l.001.003l.003.005l.001.001l.002.003l.003.006l.001.002l.003.005l.001.002l.007.01v.001l.005.007v.001c.052.077.105.151.161.226a.497.497 0 0 0 .697.101a.499.499 0 0 0 .103-.699a5.96 5.96 0 0 1-.43-.71zm-.497-1.582a5.282 5.282 0 0 1-.046-.833a.5.5 0 0 0-.485-.514l-.036.001a.5.5 0 0 0-.478.485a8.061 8.061 0 0 0-.001.311v.09l.001.005v.028l.001.003l-.001.002v.003l.001.002v.029l.001.003v.011l.001.019l.001.009v.011c.009.16.025.319.046.477a.5.5 0 0 0 .562.425a.503.503 0 0 0 .433-.567zm5.294 4.3l-.006.001l-.124.008a5.087 5.087 0 0 1-.71-.021a.5.5 0 0 0-.1.995l.125.011l.004.001l.002-.001l.003.001h.002l.006.001h.006l.003.001h.001l.006-.001l.003.001h.005l.006.001l.005.001h.013l.006.001h.013c.152.01.305.015.459.012h.039l.007-.001l.006.001h.015l.005-.001h.019l.006-.001h.001l.005.001l.001-.001l.006.001h.001l.005-.001h.008l.006-.001h.006l.001.001l.006-.001h.007l.005-.001h.02l.005-.001h.004l.004-.001l.004.001h.005l.004-.001h.005c.042-.001.085-.005.127-.007a.494.494 0 0 0 .453-.526a.493.493 0 0 0-.514-.473zm-2.439-.448a5.07 5.07 0 0 1-.724-.411a.495.495 0 0 0-.303-.087a.5.5 0 0 0-.263.911l.001.001l.006.003l.006.006l.006.004l.006.005c.266.181.548.34.842.476a.498.498 0 0 0 .663-.243a.498.498 0 0 0-.24-.665zm5.03-.398a.498.498 0 0 0-.248.08a5.142 5.142 0 0 1-.734.387a.498.498 0 0 0 .213.96a.528.528 0 0 0 .173-.038l.134-.06h.002l.006-.004l.002-.001l.004-.002h.004l.004-.002l.002-.002l.006-.001l.002-.002l.003-.002l.005-.002l.003-.001l.005-.002l.002-.001l.005-.002l.002-.001c.003-.002.003-.003.005-.003l.002-.001l.006-.003h.002l.006-.003l.006-.003l.002-.001l.005-.003l.002-.001l.006-.003l.001-.001l.007-.001l.007-.004l.002-.001l.004-.003h.002l.006-.004l.008-.002l.006-.004h.001l.007-.004l.001-.001l.014-.006l.007-.003l.014-.008l.008-.003l.006-.003h.001l.014-.008v-.001l.006-.002h.001l.022-.012l.007-.002l.014-.008l.007-.004h.001c.001-.001.003-.002.007-.002c.002-.003.004-.004.006-.005l.008-.004l.006-.003v-.001l.014-.006h.001l.007-.004l.001-.001l.005-.003h.001l.007-.004l.006-.003h.002l.006-.004v-.001l.007-.003l.001-.001l.006-.003v-.001l.006-.002l.002-.001l.004-.003l.003-.001l.005-.003l.002-.001l.005-.003l.002-.001l.006-.002c-.001-.001 0-.001.001-.001l.006-.003l.002-.001l.004-.003l.002-.001l.006-.003l.002-.001c0-.002.002-.002.004-.003l.003-.001l.004-.002l.003-.002l.004-.002l.003-.002l.003-.002l.003-.003l.005-.001l.004-.001l.002-.002l.004-.002l.004-.003l.002-.001l.004-.002l.004-.003l.003-.002c.002.001.003 0 .005-.001l.002-.002l.004-.002l.003-.002l.003-.002l.004-.002l.004-.003l.002-.001c.002-.001.006-.001.008-.003c-.002-.001-.002-.001 0-.001l.004-.002l.007-.005l.002-.001l.007-.003v-.001l.012-.006l.008-.005a.095.095 0 0 1 .02-.011h.001c.063-.038.128-.077.19-.117a.5.5 0 0 0 .152-.69a.554.554 0 0 0-.457-.225zm2.571-4.618l-.024.001a.5.5 0 0 0-.479.498c0 .277-.025.557-.072.829a.5.5 0 0 0 .987.168v-.005l.001-.002l.001-.002l-.001-.002l.001-.002v-.002l.001-.002v-.003l.001-.002v-.009c.002-.001.002-.003.002-.004v-.006a6.23 6.23 0 0 0 .052-.391l-.001-.001l.001-.003v-.001l.001-.004v-.011l.002-.003v-.001l-.001-.003v-.002l.001-.003v-.004l.002-.001l-.002-.003v-.004c.002-.001.002-.002.002-.003v-.019l.002-.003v-.001a6.22 6.22 0 0 0 .021-.495a.5.5 0 0 0-.498-.499zm-.443 2.696a.5.5 0 0 0-.68.196a4.853 4.853 0 0 1-.463.692a.5.5 0 0 0 .783.622c.116-.146.227-.299.33-.455c.002-.007.007-.014.011-.02l.001-.001l.004-.006v-.001l.004-.007c.002-.002.004-.004.004-.006l.001.001l.004-.006v-.001a.01.01 0 0 0 .003-.007l.002-.001l.004-.006v-.001c.002-.001.002-.003.003-.005l.001-.001l.004-.006l.001-.002l.002-.005l.003-.002l.002-.005h.002l.002-.006l.001-.002l.004-.004l.001-.002c.001-.002.001-.004.003-.005l.001-.003l.004-.003c0-.001 0-.002.002-.003v-.004l.003-.002l.003-.005l.001-.002l.003-.006l.002-.002l.002-.004l.002-.003c0-.001 0-.002.002-.003c0-.001 0-.002.002-.003l.003-.005l.001-.003l.002-.003l.002-.003c.002-.001.002-.002.002-.003c.002-.001.002-.002.002-.004l.002-.003l.003-.004l.003-.004v-.003l.002-.003l.003-.004l.003-.003v-.003l.004-.005v-.003c.002-.001.003-.002.003-.004l.002-.002l.002-.003l.003-.005l.002-.003v-.002l.004-.005c0-.001 0-.002.002-.003l.001-.003l.003-.004l.002-.004l.002-.003c.001-.001 0-.003.002-.004c0-.001 0-.002.002-.002l.002-.005l.002-.002l.002-.006l.002-.001l.002-.004l.002-.002l.002-.005l.002-.002l.002-.006c.002-.001 0-.002 0-.002l.004-.005l.001-.002l.004-.005v-.001l.003-.006l.002-.002l.002-.006v-.001l.005-.005l.003-.006v-.001l.004-.007l.002-.001l.025-.047a.498.498 0 0 0-.199-.672z" fill="#5C913B"></path><ellipse fill="#55ACEE" cx="18" cy="21" rx="3" ry="1"></ellipse><ellipse fill="#FFCC4D" cx="18.5" cy="21" rx="1.5" ry="1"></ellipse><path fill="#5C913B" d="M19.117 21.274a.503.503 0 0 1-.44-.739c.16-.294.328-.561.502-.795a10 10 0 0 1-.43.009c-.276 0-.528-.225-.528-.501s.195-.5.472-.5l.082.001c.296 0 .6-.018.872-.043a.49.49 0 0 1 .41.156c.014-.011.028-.022.043-.031c.1-.066.193-.119.28-.161a.49.49 0 0 1 .211-.094l.036-.007c.188-.061.32-.069.373-.069a.498.498 0 0 1 .477.647c-.082.266-.265.326-.586.39a1.2 1.2 0 0 0-.238.128a.507.507 0 0 1-.599-.034a.499.499 0 0 1-.002.614c-.17.217-.337.475-.496.768a.498.498 0 0 1-.439.261zm-1.42-1.589a.497.497 0 0 1-.066-.004a6.98 6.98 0 0 1-1.056-.221a.5.5 0 0 1-.337-.622l.006-.02l-.012.023a.5.5 0 0 1-.681.192a4.126 4.126 0 0 1-.907-.681a.5.5 0 0 1 .707-.707c.197.197.428.37.688.515a.5.5 0 0 1 .229.597a.5.5 0 0 1 .59-.256c.276.082.579.145.9.188a.5.5 0 0 1-.061.996zm-2.452-2.339c-.426 0-.977-.165-1.311-.559c-.512-.604-.813-1.379-.767-1.973c.012-.159-.143-.287-.295-.327c-.087-.023-.24-.037-.312.118a.25.25 0 0 1-.454-.21c.156-.339.506-.49.892-.392c.358.093.701.415.667.85c-.036.462.226 1.109.65 1.61c.223.264.611.371.875.381c.215.011.324-.038.347-.059c-.056-.133-.797-.523-1.113-.689c-.269-.141-.349-.335-.369-.472c-.067-.455.4-.916.852-1.36c.159-.157.31-.305.392-.414c.093-.123.078-.205.06-.256c-.069-.187-.368-.372-.728-.452c-.333-.074-.558-.235-.668-.479c-.145-.321-.068-.741.234-1.285a.25.25 0 1 1 .437.243c-.285.512-.257.744-.215.837c.042.092.149.157.32.195c.423.094.932.345 1.088.767c.089.241.044.501-.128.73c-.104.139-.268.3-.441.471c-.258.254-.739.727-.708.931c.006.042.061.079.107.102c.751.394 1.25.679 1.352 1.028a.456.456 0 0 1-.042.359c-.097.169-.299.273-.585.299c-.043.004-.09.006-.137.006z"></path><ellipse fill="#FFCC4D" cx="19.5" cy="18" rx=".5" ry="1"></ellipse><path fill="#FFCC4D" d="M17.292 17.188c0 .288-.345.521-.771.521c-.425 0-.771-.233-.771-.521s.345-.521.771-.521c.425 0 .771.233.771.521zm-1.187-4.627c.05.212-.227.46-.619.553c-.392.093-.75-.004-.801-.216c-.05-.213.227-.461.618-.554c.393-.092.752.004.802.217z"></path><path fill="#C1694F" d="M22.533 17.955c.09.07.243-.729.22-.978c0-.017-.029-.546.083-.924c.069-.128.073-1.083-.033-1.334c.084-.007.185-.034.197-.136c-.388.143-.479-.817-.852-1.369c-.362-.553-.811-.875-1.28-1.211a.979.979 0 0 1 .162-.27c-.575.288-1.471-.755-2.795-.677c-.297.029-.438.047-.514.229c-.247.02-.498.076-.498.401c0 .078.071.22.229.221c.216.063.392.014.539.316l.039.312s-.193-.247-.299-.286l.065-.133c-.1-.058-.277-.011-.277-.011s-.385-.18-.694-.132l-.06-.25c-.054.154-.175.146-.192.291c-.034-.104-.079-.233-.111-.337c-.109.148-.077.308-.116.462c-.042.036-.128.037-.15-.062c-.011-.122-.026-.133-.026-.278c-.078.137-.172.204-.203.439l-.083-.26c.003.307-.261.49-.511.707c-.071.13.011.131.017.198l.132.066l.237-.017c.039.049.007.053.11.084c.276.077.62-.254.89.267c-.124.104-.249.347-.209.393c.05 0-.1.07.102.006c-.21.204-.352.473-.352.489c-.024.058.084-.008.062.097l.05-.006c-.479.518-.016 1.075-.067 1.374c.08.129.09-.003.19-.016c.084.368.326.591.474.882l-.312.003c.007.138.132.269.231.39l-.209.066a1.128 1.128 0 0 0-.352.274c-.069.168.333.208.527.238l-.007.203c.303.029.653-.061.653-.078l.076-.059l.171.094c.057 0 .146-.228.105-.403c.11.131.214.342.324.474l.103-.014c.094.149.223.297.317.446l.105.04c.061-.021.113-.028.146-.148l.048.084l.166-.114l.116-.023l.087.142c.051-.019.101-.13.104-.248c.052.103.066.095.104.122l.077-.162l.415.388l.314.018c.112.076.419.124.471.001c.252.108.549-.014.534-.134c.232.092.589.03.589.015c.043-.005.153-.113.049-.194c-.767-.534-1.904-1.418-2.343-1.631c0-.158-.119-.727-.247-.883l.104-.174c.299.279.407.252.566.296c.17.135.229.34.399.527l.152.028a2.583 2.583 0 0 0-.554-.873c.164.082.436.301.618.46c.12.201.155.361.265.613c.08.051.162.238.151.083c-.019-.291-.224-.752-.224-.785c.326.258.322.66.421.905c.083.124.125.29.161.251l-.096-.756l-.056-.277c.241.139.327.669.44 1.305c0 .101.041.212.035.277c.052.064.111.241.11.136c0 0 0-1.034-.071-1.271c-.018-.127.03-.333.03-.333c.088.429.182.894.271 1.322v.315l.132.133c.025-.26.055-.518.081-.776l-.099-.925v-.264c-.002-.093.085-.076.14.03c.013.227.013.404.022.63c.039.258.066.447.085.776c.011.266.023.904.079.893z"></path>
    </symbol>
    <symbol id="resume" fill="none" viewBox="0 0 24 24" stroke-width="1.5" stroke="currentColor" class="w-5 xl:w-6">
        <path stroke-linecap="round" stroke-linejoin="round" d="M19.5 14.25v-2.625a3.375 3.375 0 00-3.375-3.375h-1.5A1.125 1.125 0 0113.5 7.125v-1.5a3.375 3.375 0 00-3.375-3.375H8.25m0 12.75h7.5m-7.5 3H12M10.5 2.25H5.625c-.621 0-1.125.504-1.125 1.125v17.25c0 .621.504 1.125 1.125 1.125h12.75c.621 0 1.125-.504 1.125-1.125V11.25a9 9 0 00-9-9z"></path>
    </symbol>
    <symbol id="star" viewBox="0 0 24 24" fill="">
        <path d="M11.2691 4.41115C11.5006 3.89177 11.6164 3.63208 11.7776 3.55211C11.9176 3.48263 12.082 3.48263 12.222 3.55211C12.3832 3.63208 12.499 3.89177 12.7305 4.41115L14.5745 8.54808C14.643 8.70162 14.6772 8.77839 14.7302 8.83718C14.777 8.8892 14.8343 8.93081 14.8982 8.95929C14.9705 8.99149 15.0541 9.00031 15.2213 9.01795L19.7256 9.49336C20.2911 9.55304 20.5738 9.58288 20.6997 9.71147C20.809 9.82316 20.8598 9.97956 20.837 10.1342C20.8108 10.3122 20.5996 10.5025 20.1772 10.8832L16.8125 13.9154C16.6877 14.0279 16.6252 14.0842 16.5857 14.1527C16.5507 14.2134 16.5288 14.2807 16.5215 14.3503C16.5132 14.429 16.5306 14.5112 16.5655 14.6757L17.5053 19.1064C17.6233 19.6627 17.6823 19.9408 17.5989 20.1002C17.5264 20.2388 17.3934 20.3354 17.2393 20.3615C17.0619 20.3915 16.8156 20.2495 16.323 19.9654L12.3995 17.7024C12.2539 17.6184 12.1811 17.5765 12.1037 17.56C12.0352 17.5455 11.9644 17.5455 11.8959 17.56C11.8185 17.5765 11.7457 17.6184 11.6001 17.7024L7.67662 19.9654C7.18404 20.2495 6.93775 20.3915 6.76034 20.3615C6.60623 20.3354 6.47319 20.2388 6.40075 20.1002C6.31736 19.9408 6.37635 19.6627 6.49434 19.1064L7.4341 14.6757C7.46898 14.5112 7.48642 14.429 7.47814 14.3503C7.47081 14.2807 7.44894 14.2134 7.41394 14.1527C7.37439 14.0842 7.31195 14.0279 7.18708 13.9154L3.82246 10.8832C3.40005 10.5025 3.18884 10.3122 3.16258 10.1342C3.13978 9.97956 3.19059 9.82316 3.29993 9.71147C3.42581 9.58288 3.70856 9.55304 4.27406 9.49336L8.77835 9.01795C8.94553 9.00031 9.02911 8.99149 9.10139 8.95929C9.16534 8.93081 9.2226 8.8892 9.26946 8.83718C9.32241 8.77839 9.35663 8.70162 9.42508 8.54808L11.2691 4.41115Z" stroke="" stroke-width="2" stroke-linecap="round" stroke-linejoin="round"/>
    </symbol>
    <symbol id="calendar-lines" viewBox="0 0 24 24" fill="none">
        <path d="M3 9H21M17 13.0014L7 13M10.3333 17.0005L7 17M7 3V5M17 3V5M6.2 21H17.8C18.9201 21 19.4802 21 19.908 20.782C20.2843 20.5903 20.5903 20.2843 20.782 19.908C21 19.4802 21 18.9201 21 17.8V8.2C21 7.07989 21 6.51984 20.782 6.09202C20.5903 5.71569 20.2843 5.40973 19.908 5.21799C19.4802 5 18.9201 5 17.8 5H6.2C5.0799 5 4.51984 5 4.09202 5.21799C3.71569 5.40973 3.40973 5.71569 3.21799 6.09202C3 6.51984 3 7.07989 3 8.2V17.8C3 18.9201 3 19.4802 3.21799 19.908C3.40973 20.2843 3.71569 20.5903 4.09202 20.782C4.51984 21 5.07989 21 6.2 21Z" stroke="#000000" stroke-width="2" stroke-linecap="round" stroke-linejoin="round"/>
    </symbol>
    <symbol id="calendar" viewBox="0 0 448 512">
          <path
            d="M128 0c17.7 0 32 14.3 32 32V64H288V32c0-17.7 14.3-32 32-32s32 14.3 32 32V64h48c26.5 0 48 21.5 48 48v48H0V112C0 85.5 21.5 64 48 64H96V32c0-17.7 14.3-32 32-32zM0 192H448V464c0 26.5-21.5 48-48 48H48c-26.5 0-48-21.5-48-48V192zM329 305c9.4-9.4 9.4-24.6 0-33.9s-24.6-9.4-33.9 0l-95 95-47-47c-9.4-9.4-24.6-9.4-33.9 0s-9.4 24.6 0 33.9l64 64c9.4 9.4 24.6 9.4 33.9 0L329 305z"
          />
    </symbol>
    <symbol id="calendar-days" viewBox="0 0 24 24" fill="none" >
        <path d="M3 9H21M7 3V5M17 3V5M6 12H8M11 12H13M16 12H18M6 15H8M11 15H13M16 15H18M6 18H8M11 18H13M16 18H18M6.2 21H17.8C18.9201 21 19.4802 21 19.908 20.782C20.2843 20.5903 20.5903 20.2843 20.782 19.908C21 19.4802 21 18.9201 21 17.8V8.2C21 7.07989 21 6.51984 20.782 6.09202C20.5903 5.71569 20.2843 5.40973 19.908 5.21799C19.4802 5 18.9201 5 17.8 5H6.2C5.0799 5 4.51984 5 4.09202 5.21799C3.71569 5.40973 3.40973 5.71569 3.21799 6.09202C3 6.51984 3 7.07989 3 8.2V17.8C3 18.9201 3 19.4802 3.21799 19.908C3.40973 20.2843 3.71569 20.5903 4.09202 20.782C4.51984 21 5.07989 21 6.2 21Z" stroke="#000000" stroke-width="2" stroke-linecap="round"/>
    </symbol>
    <symbol id="paw" version="1.1" viewBox="0 0 452.589 452.59">
        <g>
            <path d="M375.786,368.016c-1.022,62.699-34.434,85.385-69.898,83.283c-35.465-2.093-60.132-18.537-85.32-18.537l-1.032,0.576
                c-25.188,0-49.854,17.021-85.319,19.114c-35.466,2.093-68.876-19.449-69.898-82.148c2.056-57.565,45.911-61.798,83.265-129.8
                c32.891-59.881,71.954-55.035,71.954-55.035h1.03c0,0,39.4-4.586,71.955,55.035C329.698,308.599,373.73,310.449,375.786,368.016z
                M156.203,159.636c31.413-2.382,54.172-40.021,50.832-84.071c-3.34-44.049-31.514-77.828-62.927-75.446
                C112.695,2.501,89.936,40.141,93.276,84.19C96.616,128.239,124.789,162.018,156.203,159.636z M275.264,160.401
                c30.698,8.368,65.097-19.742,76.83-62.786c11.732-43.044-3.642-84.722-34.339-93.09c-30.698-8.368-65.097,19.742-76.829,62.786
                C229.193,110.354,244.566,152.033,275.264,160.401z M417.486,125.937c-26.732-7.288-56.688,17.19-66.905,54.674
                c-10.217,37.484,3.171,73.777,29.903,81.064c26.733,7.287,56.688-17.191,66.906-54.675
                C457.608,169.518,444.22,133.224,417.486,125.937z M102.008,180.608c-10.218-37.482-40.172-61.961-66.905-54.674
                s-40.122,43.581-29.904,81.064c10.218,37.482,40.173,61.961,66.906,54.674C98.837,254.386,112.225,218.092,102.008,180.608z"/>
        </g>
    </symbol>
    <symbol id="bone" viewBox="0 0 24 24" fill="none">
        <path d="M14.1374 2.73779C13.3942 3.48102 13.0092 4.77646 13.2895 5.7897C13.438 6.32603 13.4622 6.97541 13.0687 7.3689L7.3689 13.0687C6.97541 13.4622 6.32603 13.438 5.7897 13.2895C4.77646 13.0092 3.48101 13.3942 2.73779 14.1374C1.75407 15.1212 1.75407 16.7161 2.73779 17.6998C3.72152 18.6835 5.31646 18.6835 6.30018 17.6998C5.31646 18.6835 5.31645 20.2785 6.30018 21.2622C7.28391 22.2459 8.87884 22.2459 9.86257 21.2622C10.6058 20.519 10.9908 19.2235 10.7105 18.2103C10.562 17.674 10.5378 17.0246 10.9313 16.6311L16.6311 10.9313C17.0246 10.5378 17.674 10.562 18.2103 10.7105C19.2235 10.9908 20.519 10.6058 21.2622 9.86257C22.2459 8.87884 22.2459 7.28391 21.2622 6.30018C20.2785 5.31646 18.6835 5.31646 17.6998 6.30018C18.6835 5.31646 18.6835 3.72152 17.6998 2.73779C16.7161 1.75407 15.1212 1.75407 14.1374 2.73779Z" stroke="#1C274C" stroke-width="1.5" stroke-linecap="round" stroke-linejoin="round"/>
    </symbol>
    <symbol  viewBox="0 0 24 24" fill="none">
        <circle cx="12" cy="9" r="3" stroke="var(--dark-text-color)" stroke-width="1.7"/>
        <circle cx="12" cy="12" r="10" stroke="var(--dark-text-color)" stroke-width="1.7"/>
        <path d="M17.9691 20C17.81 17.1085 16.9247 15 11.9999 15C7.07521 15 6.18991 17.1085 6.03076 20" stroke="var(--dark-text-color)" stroke-width="1.7" stroke-linecap="round"/>
    </symbol>
    <symbol id="user-circle" viewBox="0 0 24 24">
        <path d="M12 2C6.48 2 2 6.48 2 12s4.48 10 10 10 10-4.48 10-10S17.52 2 12 2zm0 3c1.66 0 3 1.34 3 3s-1.34 3-3 3-3-1.34-3-3 1.34-3 3-3zm0 14.2c-2.5 0-4.71-1.28-6-3.22.03-1.99 4-3.08 6-3.08 1.99 0 5.97 1.09 6 3.08-1.29 1.94-3.5 3.22-6 3.22z"/>
    </symbol>
    <symbol id="config-gear" viewBox="0 0 124 124">
        <g>
            <path d="M9.3,47H6c-3.3,0-6,2.9-6,6.2v18C0,74.6,2.7,77,6,77h3.4c5.4,0,8.7,7.9,4.8,11.8L12,91c-2.4,2.3-2.4,6.2,0,8.5l12.6,12.7
                c2.3,2.3,6.1,2.3,8.5,0l3.7-3.7c3.8-3.8,10.2-1.1,10.2,4.3v5.4c0,3.3,2.7,5.8,6,5.8h18c3.3,0,6-2.4,6-5.8v-5.4
                c0-5.3,6.5-8,10.2-4.2l3.7,3.7c2.3,2.3,6.1,2.3,8.5,0L112,99.7c2.4-2.4,2.3-6.2,0-8.5l-2.2-2.3C105.9,85.1,109.2,77.1,114.6,77.1
                h3.4c3.3,0,6-2.399,6-5.8v-18c0-3.3-2.7-6.2-6-6.2h-3.3c-5.4,0-8.8-8.1-5-11.9l2.399-2.3c2.301-2.3,2.301-6.1,0-8.4L99.5,11.9
                c-2.4-2.4-6.2-2.3-8.5,0L88.6,14C84.8,17.9,77,14.7,77,9.2v-3C77,2.9,74.3,0,71,0H53c-3.3,0-6,2.9-6,6.2v3c0,5.5-7.8,8.7-11.6,4.8
                l-2.3-2.3c-2.3-2.4-6.2-2.4-8.5,0L11.9,24.4c-2.3,2.3-2.3,6.1,0,8.5l2.4,2.2C18.1,38.9,14.7,47,9.3,47z M62.2,38.2
                c13.3,0,24,10.7,24,24c0,13.3-10.7,24-24,24c-13.3,0-24-10.7-24-24C38.2,48.9,49,38.2,62.2,38.2z"/>
        </g>
    </symbol>
    <symbol id="logout" viewBox="0 0 24 24" >
        <path fill-rule="evenodd" clip-rule="evenodd" d="M16.125 12C16.125 11.5858 15.7892 11.25 15.375 11.25L4.40244 11.25L6.36309 9.56944C6.67759 9.29988 6.71401 8.8264 6.44444 8.51191C6.17488 8.19741 5.7014 8.16099 5.38691 8.43056L1.88691 11.4306C1.72067 11.573 1.625 11.7811 1.625 12C1.625 12.2189 1.72067 12.427 1.88691 12.5694L5.38691 15.5694C5.7014 15.839 6.17488 15.8026 6.44444 15.4881C6.71401 15.1736 6.67759 14.7001 6.36309 14.4306L4.40244 12.75L15.375 12.75C15.7892 12.75 16.125 12.4142 16.125 12Z" />
        <path d="M9.375 8C9.375 8.70219 9.375 9.05329 9.54351 9.3055C9.61648 9.41471 9.71025 9.50848 9.81946 9.58145C10.0717 9.74996 10.4228 9.74996 11.125 9.74996L15.375 9.74996C16.6176 9.74996 17.625 10.7573 17.625 12C17.625 13.2426 16.6176 14.25 15.375 14.25L11.125 14.25C10.4228 14.25 10.0716 14.25 9.8194 14.4185C9.71023 14.4915 9.6165 14.5852 9.54355 14.6944C9.375 14.9466 9.375 15.2977 9.375 16C9.375 18.8284 9.375 20.2426 10.2537 21.1213C11.1324 22 12.5464 22 15.3748 22L16.3748 22C19.2032 22 20.6174 22 21.4961 21.1213C22.3748 20.2426 22.3748 18.8284 22.3748 16L22.3748 8C22.3748 5.17158 22.3748 3.75736 21.4961 2.87868C20.6174 2 19.2032 2 16.3748 2L15.3748 2C12.5464 2 11.1324 2 10.2537 2.87868C9.375 3.75736 9.375 5.17157 9.375 8Z" />
    </symbol>
    <symbol id="login" viewBox="0 0 24 24">
        <path fill-rule="evenodd" clip-rule="evenodd" d="M3.5 9.56757V14.4324C3.5 16.7258 3.5 17.8724 4.22162 18.5849C4.87718 19.2321 5.89572 19.2913 7.81827 19.2968C7.81303 19.262 7.80803 19.2271 7.80324 19.192C7.68837 18.3484 7.68839 17.2759 7.68841 15.9453L7.68841 15.8919C7.68841 15.4889 8.01933 15.1622 8.42754 15.1622C8.83575 15.1622 9.16667 15.4889 9.16667 15.8919C9.16667 17.2885 9.16824 18.2626 9.26832 18.9975C9.36554 19.7114 9.54337 20.0895 9.81613 20.3588C10.0889 20.6281 10.4718 20.8037 11.195 20.8996C11.9394 20.9985 12.926 21 14.3406 21H15.3261C16.7407 21 17.7273 20.9985 18.4717 20.8996C19.1948 20.8037 19.5778 20.6281 19.8505 20.3588C20.1233 20.0895 20.3011 19.7114 20.3983 18.9975C20.4984 18.2626 20.5 17.2885 20.5 15.8919V8.10811C20.5 6.71149 20.4984 5.73743 20.3983 5.0025C20.3011 4.28855 20.1233 3.91048 19.8505 3.6412C19.5778 3.37192 19.1948 3.19635 18.4717 3.10036C17.7273 3.00155 16.7407 3 15.3261 3H14.3406C12.926 3 11.9394 3.00155 11.195 3.10036C10.4718 3.19635 10.0889 3.37192 9.81613 3.6412C9.54337 3.91048 9.36554 4.28855 9.26832 5.0025C9.16824 5.73743 9.16667 6.71149 9.16667 8.10811C9.16667 8.51113 8.83575 8.83784 8.42754 8.83784C8.01933 8.83784 7.68841 8.51113 7.68841 8.10811L7.68841 8.05472C7.68839 6.72409 7.68837 5.65156 7.80324 4.80803C7.80803 4.77288 7.81303 4.73795 7.81827 4.70325C5.89572 4.70867 4.87718 4.76792 4.22162 5.41515C3.5 6.12759 3.5 7.27425 3.5 9.56757ZM13.385 14.9484L15.8487 12.516C16.1374 12.231 16.1374 11.769 15.8487 11.484L13.385 9.05157C13.0963 8.76659 12.6283 8.76659 12.3397 9.05157C12.051 9.33655 12.051 9.79859 12.3397 10.0836L13.5417 11.2703H6.45652C6.04831 11.2703 5.71739 11.597 5.71739 12C5.71739 12.403 6.04831 12.7297 6.45652 12.7297H13.5417L12.3397 13.9164C12.051 14.2014 12.051 14.6635 12.3397 14.9484C12.6283 15.2334 13.0963 15.2334 13.385 14.9484Z" fill="var(--text-color)"/>
    </symbol>
    <symbol id="cross" viewBox="0 0 384 512">
        <path
        d="M342.6 150.6c12.5-12.5 12.5-32.8 0-45.3s-32.8-12.5-45.3 0L192 210.7 86.6 105.4c-12.5-12.5-32.8-12.5-45.3 0s-12.5 32.8 0 45.3L146.7 256 41.4 361.4c-12.5 12.5-12.5 32.8 0 45.3s32.8 12.5 45.3 0L192 301.3 297.4 406.6c12.5 12.5 32.8 12.5 45.3 0s12.5-32.8 0-45.3L237.3 256 342.6 150.6z"
        />
    </symbol>
    <symbol id="eye" viewBox="0 0 576 512">
        <path d="M288 32c-80.8 0-145.5 36.8-192.6 80.6C48.6 156 17.3 208 2.5 243.7c-3.3 7.9-3.3 16.7 0 24.6C17.3 304 48.6 356 95.4 399.4C142.5 443.2 207.2 480 288 480s145.5-36.8 192.6-80.6c46.8-43.5 78.1-95.4 93-131.1c3.3-7.9 3.3-16.7 0-24.6c-14.9-35.7-46.2-87.7-93-131.1C433.5 68.8 368.8 32 288 32zM144 256a144 144 0 1 1 288 0 144 144 0 1 1 -288 0zm144-64c0 35.3-28.7 64-64 64c-7.1 0-13.9-1.2-20.3-3.3c-5.5-1.8-11.9 1.6-11.7 7.4c.3 6.9 1.3 13.8 3.2 20.7c13.7 51.2 66.4 81.6 117.6 67.9s81.6-66.4 67.9-117.6c-11.1-41.5-47.8-69.4-88.6-71.1c-5.8-.2-9.2 6.1-7.4 11.7c2.1 6.4 3.3 13.2 3.3 20.3z"/>
    </symbol>
    <symbol id="eye-slash" viewBox="0 0 640 512">
        <path d="M38.8 5.1C28.4-3.1 13.3-1.2 5.1 9.2S-1.2 34.7 9.2 42.9l592 464c10.4 8.2 25.5 6.3 33.7-4.1s6.3-25.5-4.1-33.7L525.6 386.7c39.6-40.6 66.4-86.1 79.9-118.4c3.3-7.9 3.3-16.7 0-24.6c-14.9-35.7-46.2-87.7-93-131.1C465.5 68.8 400.8 32 320 32c-68.2 0-125 26.3-169.3 60.8L38.8 5.1zM223.1 149.5C248.6 126.2 282.7 112 320 112c79.5 0 144 64.5 144 144c0 24.9-6.3 48.3-17.4 68.7L408 294.5c8.4-19.3 10.6-41.4 4.8-63.3c-11.1-41.5-47.8-69.4-88.6-71.1c-5.8-.2-9.2 6.1-7.4 11.7c2.1 6.4 3.3 13.2 3.3 20.3c0 10.2-2.4 19.8-6.6 28.3l-90.3-70.8zM373 389.9c-16.4 6.5-34.3 10.1-53 10.1c-79.5 0-144-64.5-144-144c0-6.9 .5-13.6 1.4-20.2L83.1 161.5C60.3 191.2 44 220.8 34.5 243.7c-3.3 7.9-3.3 16.7 0 24.6c14.9 35.7 46.2 87.7 93 131.1C174.5 443.2 239.2 480 320 480c47.8 0 89.9-12.9 126.2-32.5L373 389.9z"/>
    </symbol>
    <symbol id="plus" viewBox="0 0 448 512">
        <path d="M256 80c0-17.7-14.3-32-32-32s-32 14.3-32 32V224H48c-17.7 0-32 14.3-32 32s14.3 32 32 32H192V432c0 17.7 14.3 32 32 32s32-14.3 32-32V288H400c17.7 0 32-14.3 32-32s-14.3-32-32-32H256V80z"/>
    </symbol>
    <symbol id="clock" viewBox="0 0 512 512">
        <path d="M256 0a256 256 0 1 1 0 512A256 256 0 1 1 256 0zM232 120V256c0 8 4 15.5 10.7 20l96 64c11 7.4 25.9 4.4 33.3-6.7s4.4-25.9-6.7-33.3L280 243.2V120c0-13.3-10.7-24-24-24s-24 10.7-24 24z"/>
    </symbol>
    <symbol  id="facebook-logo" viewBox="0 0 24 24" fill="#000000">
        <path d="M12 2.03998C6.5 2.03998 2 6.52998 2 12.06C2 17.06 5.66 21.21 10.44 21.96V14.96H7.9V12.06H10.44V9.84998C10.44 7.33998 11.93 5.95998 14.22 5.95998C15.31 5.95998 16.45 6.14998 16.45 6.14998V8.61998H15.19C13.95 8.61998 13.56 9.38998 13.56 10.18V12.06H16.34L15.89 14.96H13.56V21.96C15.9164 21.5878 18.0622 20.3855 19.6099 18.57C21.1576 16.7546 22.0054 14.4456 22 12.06C22 6.52998 17.5 2.03998 12 2.03998Z"/>
    </symbol>
    <symbol  id="tiktok-logo" viewBox="0 0 32 32" fill="#000000">
        <title>tiktok</title>
        <path d="M16.656 1.029c1.637-0.025 3.262-0.012 4.886-0.025 0.054 2.031 0.878 3.859 2.189 5.213l-0.002-0.002c1.411 1.271 3.247 2.095 5.271 2.235l0.028 0.002v5.036c-1.912-0.048-3.71-0.489-5.331-1.247l0.082 0.034c-0.784-0.377-1.447-0.764-2.077-1.196l0.052 0.034c-0.012 3.649 0.012 7.298-0.025 10.934-0.103 1.853-0.719 3.543-1.707 4.954l0.020-0.031c-1.652 2.366-4.328 3.919-7.371 4.011l-0.014 0c-0.123 0.006-0.268 0.009-0.414 0.009-1.73 0-3.347-0.482-4.725-1.319l0.040 0.023c-2.508-1.509-4.238-4.091-4.558-7.094l-0.004-0.041c-0.025-0.625-0.037-1.25-0.012-1.862 0.49-4.779 4.494-8.476 9.361-8.476 0.547 0 1.083 0.047 1.604 0.136l-0.056-0.008c0.025 1.849-0.050 3.699-0.050 5.548-0.423-0.153-0.911-0.242-1.42-0.242-1.868 0-3.457 1.194-4.045 2.861l-0.009 0.030c-0.133 0.427-0.21 0.918-0.21 1.426 0 0.206 0.013 0.41 0.037 0.61l-0.002-0.024c0.332 2.046 2.086 3.59 4.201 3.59 0.061 0 0.121-0.001 0.181-0.004l-0.009 0c1.463-0.044 2.733-0.831 3.451-1.994l0.010-0.018c0.267-0.372 0.45-0.822 0.511-1.311l0.001-0.014c0.125-2.237 0.075-4.461 0.087-6.698 0.012-5.036-0.012-10.060 0.025-15.083z"></path>
    </symbol>
    <symbol id="instagram-logo" viewBox="0 0 24 24" fill="none">
        <path fill-rule="evenodd" clip-rule="evenodd" d="M12 18C15.3137 18 18 15.3137 18 12C18 8.68629 15.3137 6 12 6C8.68629 6 6 8.68629 6 12C6 15.3137 8.68629 18 12 18ZM12 16C14.2091 16 16 14.2091 16 12C16 9.79086 14.2091 8 12 8C9.79086 8 8 9.79086 8 12C8 14.2091 9.79086 16 12 16Z" fill="#0F0F0F"/>
        <path d="M18 5C17.4477 5 17 5.44772 17 6C17 6.55228 17.4477 7 18 7C18.5523 7 19 6.55228 19 6C19 5.44772 18.5523 5 18 5Z" fill="#0F0F0F"/>
        <path fill-rule="evenodd" clip-rule="evenodd" d="M1.65396 4.27606C1 5.55953 1 7.23969 1 10.6V13.4C1 16.7603 1 18.4405 1.65396 19.7239C2.2292 20.8529 3.14708 21.7708 4.27606 22.346C5.55953 23 7.23969 23 10.6 23H13.4C16.7603 23 18.4405 23 19.7239 22.346C20.8529 21.7708 21.7708 20.8529 22.346 19.7239C23 18.4405 23 16.7603 23 13.4V10.6C23 7.23969 23 5.55953 22.346 4.27606C21.7708 3.14708 20.8529 2.2292 19.7239 1.65396C18.4405 1 16.7603 1 13.4 1H10.6C7.23969 1 5.55953 1 4.27606 1.65396C3.14708 2.2292 2.2292 3.14708 1.65396 4.27606ZM13.4 3H10.6C8.88684 3 7.72225 3.00156 6.82208 3.0751C5.94524 3.14674 5.49684 3.27659 5.18404 3.43597C4.43139 3.81947 3.81947 4.43139 3.43597 5.18404C3.27659 5.49684 3.14674 5.94524 3.0751 6.82208C3.00156 7.72225 3 8.88684 3 10.6V13.4C3 15.1132 3.00156 16.2777 3.0751 17.1779C3.14674 18.0548 3.27659 18.5032 3.43597 18.816C3.81947 19.5686 4.43139 20.1805 5.18404 20.564C5.49684 20.7234 5.94524 20.8533 6.82208 20.9249C7.72225 20.9984 8.88684 21 10.6 21H13.4C15.1132 21 16.2777 20.9984 17.1779 20.9249C18.0548 20.8533 18.5032 20.7234 18.816 20.564C19.5686 20.1805 20.1805 19.5686 20.564 18.816C20.7234 18.5032 20.8533 18.0548 20.9249 17.1779C20.9984 16.2777 21 15.1132 21 13.4V10.6C21 8.88684 20.9984 7.72225 20.9249 6.82208C20.8533 5.94524 20.7234 5.49684 20.564 5.18404C20.1805 4.43139 19.5686 3.81947 18.816 3.43597C18.5032 3.27659 18.0548 3.14674 17.1779 3.0751C16.2777 3.00156 15.1132 3 13.4 3Z" fill="#0F0F0F"/>
    </symbol>
    <symbol id="right-arrow-short" viewBox="0 0 24 24" fill="none" >
        <path fill-rule="evenodd" clip-rule="evenodd" d="M12.2929 4.29289C12.6834 3.90237 13.3166 3.90237 13.7071 4.29289L20.7071 11.2929C21.0976 11.6834 21.0976 12.3166 20.7071 12.7071L13.7071 19.7071C13.3166 20.0976 12.6834 20.0976 12.2929 19.7071C11.9024 19.3166 11.9024 18.6834 12.2929 18.2929L17.5858 13H4C3.44772 13 3 12.5523 3 12C3 11.4477 3.44772 11 4 11H17.5858L12.2929 5.70711C11.9024 5.31658 11.9024 4.68342 12.2929 4.29289Z" fill="#000000"/>
    </symbol>
    <symbol id="left-arrow-short" viewBox="0 0 24 24" fill="none" >
        <path fill-rule="evenodd" clip-rule="evenodd" d="M11.7071 4.29289C12.0976 4.68342 12.0976 5.31658 11.7071 5.70711L6.41421 11H20C20.5523 11 21 11.4477 21 12C21 12.5523 20.5523 13 20 13H6.41421L11.7071 18.2929C12.0976 18.6834 12.0976 19.3166 11.7071 19.7071C11.3166 20.0976 10.6834 20.0976 10.2929 19.7071L3.29289 12.7071C3.10536 12.5196 3 12.2652 3 12C3 11.7348 3.10536 11.4804 3.29289 11.2929L10.2929 4.29289C10.6834 3.90237 11.3166 3.90237 11.7071 4.29289Z" fill="#000000"/>
    </symbol>
    <symbol id="phone" viewBox="0 0 24 24" fill="none" >
        <path d="M16.5562 12.9062L16.1007 13.359C16.1007 13.359 15.0181 14.4355 12.0631 11.4972C9.10812 8.55901 10.1907 7.48257 10.1907 7.48257L10.4775 7.19738C11.1841 6.49484 11.2507 5.36691 10.6342 4.54348L9.37326 2.85908C8.61028 1.83992 7.13596 1.70529 6.26145 2.57483L4.69185 4.13552C4.25823 4.56668 3.96765 5.12559 4.00289 5.74561C4.09304 7.33182 4.81071 10.7447 8.81536 14.7266C13.0621 18.9492 17.0468 19.117 18.6763 18.9651C19.1917 18.9171 19.6399 18.6546 20.0011 18.2954L21.4217 16.883C22.3806 15.9295 22.1102 14.2949 20.8833 13.628L18.9728 12.5894C18.1672 12.1515 17.1858 12.2801 16.5562 12.9062Z" fill="var(--black-text-color)"/>
    </symbol>
    <symbol id="edit" viewBox="0 0 24 24" fill="none" >
        <path d="M12 3.99997H6C4.89543 3.99997 4 4.8954 4 5.99997V18C4 19.1045 4.89543 20 6 20H18C19.1046 20 20 19.1045 20 18V12M18.4142 8.41417L19.5 7.32842C20.281 6.54737 20.281 5.28104 19.5 4.5C18.7189 3.71895 17.4526 3.71895 16.6715 4.50001L15.5858 5.58575M18.4142 8.41417L12.3779 14.4505C12.0987 14.7297 11.7431 14.9201 11.356 14.9975L8.41422 15.5858L9.00257 12.6441C9.08001 12.2569 9.27032 11.9013 9.54951 11.6221L15.5858 5.58575M18.4142 8.41417L15.5858 5.58575" stroke="#000000" stroke-width="2" stroke-linecap="round" stroke-linejoin="round"/>
    </symbol>
    <symbol id="tick" viewBox="0 0 24 24" fill="none">
        <path d="M4.89163 13.2687L9.16582 17.5427L18.7085 8" stroke-width="2.5" stroke-linecap="round" stroke-linejoin="round"/>
    </symbol>

    <symbol id="bath" viewBox="0 0 99.388 99.388">
        <g>
            <g>
                <circle cx="70.244" cy="21.392" r="10.805"/>
                <path d="M55.542,57.549c0-1.86-1.511-3.372-3.372-3.372h-6.313l-1.868-9.607l-3.757,0.737c-0.223,0.021-0.437,0.062-0.645,0.128
                    l-2.953,0.579c-0.176-0.853-0.667-1.586-1.334-2.1l8.608-1.606c0,0-0.01-3.106,0.294-3.209c0.421-0.146,0.844-0.294,1.266-0.438
                    c1.232-0.427,2.314-1.094,3.224-2.036c1.549-1.6,2.453-4.036,0.805-6.141c-1.512-1.931-7.165,0.678-7.879,0.67
                    c-2.111-0.026-3.637-0.924-5.738-0.659c-0.366,0.046-0.737,0.092-1.095,0.175c-0.214,0.05-0.346,0.001-0.471-0.168
                    c-0.429-0.575-0.858-1.147-1.299-1.712c-0.791-1.011-1.85-1.616-3.116-1.476c-0.509,0.055-2.673,0.707-1.042,3.788
                    c0.354,0.669,0.656,1.382,0.853,2.111l0.479,2.72c-0.294-0.068-0.597-0.114-0.912-0.114c-2.196,0-3.982,1.786-3.982,3.982
                    c0,2.195,1.786,3.981,3.982,3.981c0.805,0,1.552-0.243,2.18-0.656l0.076,0.433c-1.166,0.589-1.975,1.786-1.975,3.18
                    c0,0.637,0.181,1.228,0.474,1.745l-0.665,0.976c-0.409-0.406-0.972-0.659-1.593-0.659c-1.246,0-2.26,1.015-2.26,2.263
                    c0,0.922,0.558,1.717,1.354,2.065l-0.714,1.049H3.373C1.51,54.178,0,55.689,0,57.55s1.51,3.372,3.373,3.372h0.041
                    c-0.476,1.14-0.74,2.388-0.74,3.696v9.346c0,5.312,4.323,9.637,9.635,9.637h30.925c5.313,0,9.635-4.324,9.635-9.637v-9.346
                    c0-1.309-0.264-2.557-0.74-3.696h0.041C54.031,60.922,55.542,59.412,55.542,57.549z M27.775,51.81
                    c-0.412,0-0.748-0.336-0.748-0.748s0.335-0.748,0.748-0.748s0.748,0.335,0.748,0.748S28.187,51.81,27.775,51.81z M29.277,42.271
                    c-1.362,0-2.47-1.108-2.47-2.47s1.108-2.471,2.47-2.471c1.361,0,2.469,1.108,2.469,2.471
                    C31.746,41.163,30.638,42.271,29.277,42.271z M33.132,48.8c-1.137,0-2.063-0.924-2.063-2.062c0-1.137,0.925-2.063,2.063-2.063
                    s2.063,0.926,2.063,2.063C35.195,47.877,34.27,48.8,33.132,48.8z M40.539,50.305c-0.969,0-1.758-0.788-1.758-1.758
                    c0-0.971,0.789-1.759,1.758-1.759c0.97,0,1.758,0.788,1.758,1.759C42.298,49.518,41.509,50.305,40.539,50.305z"/>
                <path d="M17.137,43.394c1.981,0,3.593-1.61,3.593-3.592s-1.612-3.593-3.593-3.593s-3.593,1.61-3.593,3.593
                    C13.544,41.783,15.156,43.394,17.137,43.394z M17.137,37.72c1.146,0,2.08,0.934,2.08,2.081c0,1.146-0.934,2.08-2.08,2.08
                    c-1.147,0-2.081-0.934-2.081-2.08C15.057,38.654,15.99,37.72,17.137,37.72z"/>
                <path d="M96.215,78.81l-10.059-4.26l4.67-8.193c0.951-1.621,0.834-3.895,0.619-4.908l-4.998-23.322
                    c-0.932-4.345-5.338-6.431-9.078-6.54l-0.031,0.004c0,0-1.318,0.007-2.456,0.223c-1.188,0.228-2.231,0.798-2.231,0.798
                    c-2.758,1.339-5.396,4.103-5.718,7.458c-0.223,1.484,0.013,5.938-2.407,6.346c-2.166,0.365-7.095-0.399-10.563-1.446
                    c-2.222-0.671-4.559,0.587-5.228,2.805c-0.669,2.218,0.587,4.56,2.805,5.229c4.117,1.24,7.794,2.229,11.085,2.229
                    c2.327,0,4.461-0.496,6.418-1.744c0.126-0.08,0.237-0.182,0.358-0.267l1.256,5.866l-6.098-0.837
                    c-1.869-0.253-3.744,0.424-5.012,1.819c-1.268,1.396-1.768,3.328-1.333,5.164l4.412,18.674c0.623,2.634,2.97,4.406,5.563,4.406
                    c0.436,0,0.877-0.052,1.319-0.154c3.075-0.727,4.979-3.809,4.252-6.885l-2.495-10.557L76,71.369l-1.776,3.115
                    c-0.735,1.291-0.884,2.834-0.407,4.242c0.476,1.406,1.53,2.543,2.897,3.121l15.442,6.54c0.664,0.281,1.351,0.413,2.026,0.413
                    c2.026,0,3.951-1.189,4.792-3.174C100.095,82.982,98.859,79.93,96.215,78.81z"/>
            </g>
        </g>
    </symbol>
    <symbol id="brush"  viewBox="0 0 98.538 98.538">
        <g>
            <g>
                <circle cx="66.465" cy="10.188" r="10.188"/>
                <path d="M69.003,20.967l-2.538,2.555l-2.46-2.584c-0.008,0.004-0.017,0.003-0.024,0.006c-1.338,0.468-4.047,1.713-4.047,1.713
                    c-8.075,3.457-9.315,3.99-15.829-2.211c-1.289-1.229-3.184-1.399-4.659-0.569l-7.927-6.787c-0.472-0.404-1.182-0.35-1.586,0.123
                    c-0.327,0.381-0.34,0.911-0.087,1.317l-2.226,2.599c-0.247,0.289-0.214,0.723,0.075,0.971c0.289,0.246,0.723,0.213,0.969-0.076
                    l2.182-2.548l0.854,0.731l-2.182,2.548c-0.247,0.289-0.213,0.724,0.075,0.97c0.288,0.247,0.722,0.214,0.969-0.074l2.182-2.549
                    l0.855,0.731l-2.182,2.549c-0.247,0.288-0.213,0.722,0.075,0.969c0.289,0.248,0.722,0.214,0.969-0.075l2.182-2.548l0.855,0.731
                    l-2.182,2.549c-0.247,0.289-0.214,0.722,0.075,0.969s0.722,0.214,0.969-0.075l2.182-2.548l1.344,1.151
                    c-0.791,1.52-0.541,3.429,0.763,4.67c5.341,5.086,9.26,6.959,13.249,6.959c1.352,0,2.715-0.223,4.14-0.602v19.776
                    c0,1.236,0.279,2.375,0.759,3.402c-0.006,0.096-0.003,6.572-0.003,6.572h15.626v8.771h-4.344v26.024
                    c0.853,0.896,2.047,1.459,3.38,1.459c2.581,0,4.674-2.095,4.674-4.675l0.004-38.147c0.496-1.043,0.76-2.149,0.76-3.407V41.321
                    c0,0,1.672,3.406,0.813,12.25c-0.211,2.175,1.457,4.08,3.635,4.252c0.105,0.009,0.21,0.013,0.313,0.013
                    c2.044,0,3.776-1.573,3.938-3.646C87.15,34.266,78.564,23.883,69.003,20.967z M66.49,43.684h-0.048l-2.457-3.363l2.457-16.42
                    h0.048l2.457,16.42L66.49,43.684z"/>
                <path d="M56.772,93.866c0,2.151,1.463,3.944,3.441,4.487V71.055h-3.443L56.772,93.866z"/>
                <polygon points="70.919,63.745 13.533,63.745 13.533,69.516 17.876,69.516 17.876,97.943 22.738,97.943 22.738,69.516 
                    61.714,69.516 61.714,97.943 66.576,97.943 66.576,69.516 70.919,69.516 		"/>
                <path d="M17.374,53.447c0,0.044-3.392,6.683-3.392,6.683c-0.508,0.978-0.128,2.179,0.847,2.687
                    c0.294,0.154,0.608,0.227,0.917,0.227c0.719,0,1.413-0.391,1.768-1.072l3.427-6.586l3.835,6.66
                    c0.369,0.639,1.038,0.998,1.728,0.998c0.337,0,0.678-0.086,0.992-0.266c0.953-0.549,1.281-1.768,0.732-2.721l-3.346-5.812h12.393
                    v6.806c0,1.1,0.892,1.991,1.992,1.991s1.991-0.894,1.991-1.991V53.52c0.002-0.025,0.014-0.045,0.014-0.07v-6.297l-9.275-5.318
                    H19.791L16,38.789c-0.858-0.689-2.112-0.553-2.8,0.305c-0.688,0.857-0.552,2.111,0.305,2.801l3.868,3.107L17.374,53.447
                    L17.374,53.447z"/>
                <path d="M41.598,29.166c-0.33-0.244-1.959-1.033-2.668,1.668c-0.154,0.586-0.364,1.17-0.644,1.707
                    c-1.024,1.967-2.324,3.766-3.568,5.598c-0.568,0.834-1.136,1.67-1.702,2.504l8.708,4.959c0,0,1.679-1.836,1.915-1.732
                    c0.326,0.145,0.655,0.285,0.983,0.428c0.958,0.416,1.958,0.611,3.006,0.549c1.78-0.104,3.635-1.049,3.805-3.184
                    c0.155-1.957-4.593-3.486-5.008-3.877c-1.231-1.16-1.644-2.518-3.026-3.502c-0.241-0.17-0.485-0.344-0.741-0.49
                    c-0.154-0.086-0.203-0.186-0.186-0.354c0.059-0.57,0.117-1.143,0.162-1.713C42.716,30.702,42.42,29.77,41.598,29.166z"/>
            </g>
        </g>
    </symbol>
    <symbol id="bathHaircut" viewBox="0 0 98.538 98.538">
        <g><g><circle r="10.188" transform="translate(66.465 10.188)"/><path d="M37.275,21.853945C36.971947,23.522,37.345,24.934,38.649,26.175c5.341,5.086,9.26,6.959,13.249,6.959c1.352,0,2.715-.223,4.14-.602v19.776c0,1.236.279,2.375.759,3.402-.006.096-.003,6.572-.003,6.572h15.626v8.771h-4.344v26.024c.853.896,2.047,1.459,3.38,1.459c2.581,0,4.674-2.095,4.674-4.675l.004-38.147c.496-1.043.76-2.149.76-3.407v-10.986c0,0,1.672,3.406.813,12.25-.211,2.175,1.457,4.08,3.635,4.252.105.009.21.013.313.013c2.044,0,3.776-1.573,3.938-3.646c1.557-19.924-7.029-30.307-16.59-33.223l-2.538,2.555-2.46-2.584c-.008.004-.017.003-.024.006-1.338.468-4.047,1.713-4.047,1.713-8.075,3.457-9.315,3.99-15.829-2.211-1.289-1.229-3.857-1.158215-5.332-.328215"/><path d=""/><path d="M66.49,43.684h-.048l-2.457-3.363l2.457-16.42h.048l2.457,16.42-2.457,3.363Z"/><path d="M56.772,93.866c0,2.151,1.463,3.944,3.441,4.487v-27.298h-3.443l.002,22.811Z"/><polygon points="70.919,63.745 13.533,63.745 13.533,69.516 17.876,69.516 17.876,97.943 22.738,97.943 22.738,69.516 61.714,69.516 61.714,97.943 66.576,97.943 66.576,69.516 70.919,69.516"/><g transform="matrix(-1 0 0 1 64.198072 0.000001)"><path d="M17.374,53.447c0,.044-3.392,6.683-3.392,6.683-.508.978-.128,2.179.847,2.687.294.154.608.227.917.227.719,0,1.413-.391,1.768-1.072l3.427-6.586l3.835,6.66c.369.639,1.038.998,1.728.998.337,0,.678-.086.992-.266.953-.549,1.281-1.768.732-2.721l-3.346-5.812h12.393v6.806c0,1.1.892,1.991,1.992,1.991s1.991-.894,1.991-1.991v-7.531c.002-.025.014-.045.014-.07v-6.297l-9.275-5.318h-12.206L16,38.789c-.858-.689-2.112-.553-2.8.305-.688.857-.552,2.111.305,2.801l3.868,3.107.001,8.445v0Z"/><path d="M41.598,29.166c-.33-.244-1.959-1.033-2.668,1.668-.154.586-.364,1.17-.644,1.707-1.024,1.967-2.324,3.766-3.568,5.598-.568.834-1.136,1.67-1.702,2.504l8.708,4.959c0,0,1.679-1.836,1.915-1.732.326.145.655.285.983.428.958.416,1.958.611,3.006.549c1.78-.104,3.635-1.049,3.805-3.184.155-1.957-4.593-3.486-5.008-3.877-1.231-1.16-1.644-2.518-3.026-3.502-.241-.17-.485-.344-.741-.49-.154-.086-.203-.186-.186-.354.059-.57.117-1.143.162-1.713.082-1.025-.214-1.957-1.036-2.561Z"/></g></g></g><ellipse rx="1.860978" ry="1.692397" transform="translate(39.036893 18.683603)" fill="none" stroke="#010100" stroke-width="1.4"/><ellipse rx="1.860978" ry="1.692397" transform="translate(35.314937 22.068397)" fill="none" stroke="#010100" stroke-width="1.4"/><path d="M37.175915,18.683603L27.496,14.819248" fill="none" stroke="#010100" stroke-linecap="round"/><path d="M35.314936,20.375999L31.997,11.359178" transform="translate(.000001 0.000001)" fill="none" stroke="#010100" stroke-linecap="round" stroke-linejoin="round"/><path d="" fill="none" stroke="#3f5787" stroke-width="1.5"/><path d="" fill="none" stroke="#3f5787" stroke-width="1.5"/>
    </symbol>
</svg>